<?xml version="1.0" encoding="utf-8"?>
<!-- Generator: Adobe Illustrator 22.1.0, SVG Export Plug-In . SVG Version: 6.00 Build 0)  -->
<svg version="1.0" id="Layer_1" xmlns="http://www.w3.org/2000/svg" xmlns:xlink="http://www.w3.org/1999/xlink" x="0px" y="0px"
	 viewBox="0 0 493.1 326.1" style="enable-background:new 0 0 493.1 326.1;" xml:space="preserve">
<g>
	<path class="st0" d="M491.3,326.1c-3.8-2.8-7.8-5.4-11.4-8.4c-15.6-13.2-31.2-26.5-46.7-40c-2.9-2.5-4.9-2.2-8.3-1
		c-6,2.2-12.5,3.1-18.6,4.9c-5.2,1.5-10.2,3.5-15.4,5.2c-2.1,0.7-4.3,1.1-6.5,1.7c0.3-2.3-0.2-5.3,1.1-6.8
		c5.2-6.6,10.9-12.9,16.7-19c2.8-3,6.4-5.4,9.5-8.2c4.6-4.1,4.8-6.3,0.6-10.9c-1.9-2.1-4.1-3.9-6.2-5.8
		c-27.7-24.8-57.1-47.4-90.1-65c-24.3-12.9-50-20.7-77.4-23.1c-11.3-1-22.5-2.6-33.8-2.8c-40.2-0.7-77.4,9.3-112,30.4
		c-20.6,12.5-42.3,23.3-64,33.8c-7.4,3.6-16.3,3.9-24.6,5.5c-3.8,0.7-4.9-1.5-3.7-4.7c0.9-2.4,2.3-4.8,3.9-6.8
		c8.9-11.4,17.8-22.8,27.1-33.9c4.7-5.6,6.2-12,6.1-18.9c-0.2-15.1,3.2-29.4,10.2-42.7c2.7-5.1,5.9-10.1,9.6-14.5
		c27.1-31.8,61.9-48.8,103.2-53.9c14.9-1.9,29.8-2.7,44.8-2.8c3.4,0,7.2-1.2,10.2-2.9c19.6-11.4,39.4-22.4,61-29.6
		c13.4-4.5,27.1-6.9,41.2-5.4c2.8,0.3,5.6,1,8.1,2.1c1.3,0.5,2.6,2.2,2.9,3.5c0.1,0.9-1.5,2.4-2.7,3.1c-6.4,3.8-13.1,7.3-19.4,11.3
		c-9.2,5.9-15.9,14.1-20.8,23.8c-3.1,6.1-2.7,7,3.6,9.3c28.7,10.3,54.1,25.7,74.2,49c9.4,11,18.1,22.6,27,34.1
		c23.5,30.4,37.4,65.4,47.5,102.1c0.8,2.8,2.9,5.5,5.1,7.5c4.9,4.4,10.4,8.3,15.5,12.6c14.8,12.6,24.1,28.6,29.2,47.3
		c1.7,6.3,3.5,12.6,5.2,18.9C492.5,325.3,491.9,325.7,491.3,326.1z" fill="#4d67a7" />
</g>
</svg>
